<svg width="229" height="40" viewBox="0 0 229 40" fill="none" xmlns="http://www.w3.org/2000/svg">
<g clip-path="url(#clip0)">
<path d="M10.6655 33.1643C9.56083 33.1643 8.55555 32.8991 7.64969 32.3689C6.76592 31.8386 6.00367 31.1095 5.36294 30.1816C4.7443 29.2536 4.26928 28.171 3.93786 26.9337C3.62855 25.6743 3.49598 24.3377 3.54017 22.9236C3.58436 21.598 3.75006 20.1619 4.03729 18.6153C4.34661 17.0687 4.77744 15.5221 5.3298 13.9755C5.88215 12.4068 6.54498 10.9044 7.31827 9.46827C8.11366 8.01006 9.01952 6.72859 10.0359 5.62389C11.0522 4.51918 12.179 3.63541 13.4163 2.97258C14.6535 2.28767 16.0123 1.94521 17.4926 1.94521C18.3985 1.94521 19.1608 2.13301 19.7794 2.50861C20.4201 2.86211 20.9283 3.33714 21.3039 3.93368C21.7016 4.53022 21.9778 5.2041 22.1324 5.9553C22.2871 6.7065 22.3534 7.46875 22.3313 8.24205C22.2871 8.97115 22.1766 9.67817 21.9999 10.3631C21.8452 11.048 21.6132 11.6666 21.3039 12.219C21.0167 12.7493 20.6521 13.1801 20.2102 13.5115C19.7904 13.8208 19.3044 13.9755 18.752 13.9755C18.4869 13.9534 18.2328 13.865 17.9898 13.7104C17.7688 13.5778 17.5368 13.3789 17.2938 13.1138C17.0729 12.8487 16.863 12.462 16.6641 11.9539C17.2607 11.7108 17.7246 11.291 18.056 10.6945C18.4095 10.0759 18.6747 9.43513 18.8514 8.77231C19.0503 8.0211 19.1828 7.18152 19.2491 6.25357C19.2933 5.34771 19.1055 4.68488 18.6857 4.26509C18.2659 3.8453 17.7909 3.63541 17.2607 3.63541C16.2222 3.63541 15.1286 4.17672 13.9797 5.25933C12.8308 6.34195 11.7592 7.81121 10.765 9.66712C9.79282 11.5009 8.96429 13.6441 8.27937 16.0965C7.61654 18.549 7.2299 21.145 7.11943 23.8847C7.07524 25.122 7.15257 26.1715 7.35141 27.0331C7.57236 27.8948 7.87063 28.6018 8.24623 29.1542C8.64392 29.7065 9.08581 30.1042 9.57188 30.3473C10.058 30.5903 10.544 30.7118 11.0301 30.7118C11.8034 30.7118 12.5325 30.5461 13.2174 30.2147C13.9023 29.8833 14.521 29.4745 15.0733 28.9885C15.6478 28.5024 16.1338 27.9942 16.5315 27.464C16.9513 26.9558 17.2717 26.5029 17.4926 26.1052C17.6473 25.818 17.813 25.6412 17.9898 25.5749C18.1665 25.5086 18.3212 25.5307 18.4537 25.6412C18.5863 25.7296 18.6747 25.8842 18.7189 26.1052C18.7631 26.304 18.7189 26.5471 18.5863 26.8343C18.2107 27.5855 17.7467 28.3367 17.1944 29.0879C16.6641 29.8391 16.0565 30.513 15.3716 31.1095C14.7088 31.7282 13.9797 32.2253 13.1843 32.6009C12.3889 32.9765 11.5493 33.1643 10.6655 33.1643ZM26.2751 27.5303C25.4355 27.5303 24.7506 27.3977 24.2203 27.1326C23.6901 26.8674 23.2703 26.5471 22.9609 26.1715C22.6737 25.7738 22.4638 25.354 22.3313 24.9121C22.2208 24.4481 22.1656 24.0283 22.1656 23.6527C22.1656 22.9899 22.2208 22.2939 22.3313 21.5648C22.4417 20.8136 22.5743 20.1287 22.729 19.5101C22.8836 18.8693 23.0162 18.328 23.1267 17.8862C23.2592 17.4443 23.3476 17.1681 23.3918 17.0576C23.5906 16.4169 23.8447 15.8645 24.154 15.4006C24.4854 14.9145 24.9384 14.5831 25.5128 14.4063C25.7338 14.3621 25.9658 14.3179 26.2088 14.2738C26.4076 14.2517 26.6065 14.2406 26.8053 14.2406C27.0263 14.2406 27.2251 14.2738 27.4019 14.34C26.8053 15.8645 26.3303 17.135 25.9768 18.1513C25.6454 19.1676 25.3913 19.9961 25.2146 20.6369C25.0157 21.366 24.8942 21.9515 24.85 22.3934C24.7395 23.3876 24.8279 24.1388 25.1151 24.647C25.4024 25.1551 25.9879 25.4092 26.8716 25.4092C27.4461 25.4092 27.9984 25.1993 28.5287 24.7795C29.0589 24.3377 29.545 23.7743 29.9869 23.0893C29.9206 22.7358 29.8875 22.3713 29.8875 21.9957C29.8875 21.2887 29.9427 20.6037 30.0532 19.9409C30.1857 19.256 30.3294 18.6263 30.484 18.0519C30.6608 17.4553 30.8375 16.9251 31.0143 16.4611C31.2131 15.9971 31.3788 15.6325 31.5114 15.3674C31.7544 14.8372 31.9754 14.5168 32.1742 14.4063C32.3731 14.2738 32.6934 14.1964 33.1353 14.1743C33.3121 14.1522 33.4557 14.1522 33.5662 14.1743C33.6987 14.1743 33.8092 14.1854 33.8976 14.2075C34.1627 14.2738 34.2953 14.4063 34.2953 14.6052C34.2953 14.9587 34.2732 15.4889 34.229 16.1959C34.1848 16.903 34.0522 17.6321 33.8313 18.3833C33.6766 19.0019 33.522 19.5322 33.3673 19.9741C33.2347 20.3938 33.1022 20.7584 32.9696 21.0677C32.837 21.3549 32.7045 21.598 32.5719 21.7968C32.4393 21.9736 32.3178 22.1393 32.2074 22.2939C32.2515 22.9568 32.3068 23.487 32.3731 23.8847C32.4393 24.2824 32.5167 24.5917 32.6051 24.8127C32.7155 25.0115 32.837 25.1551 32.9696 25.2435C33.1243 25.3098 33.29 25.3429 33.4667 25.3429C33.776 25.3429 34.1406 25.1993 34.5604 24.9121C34.9802 24.6028 35.411 24.2272 35.8529 23.7853C36.3169 23.3213 36.7698 22.8242 37.2117 22.2939C37.6757 21.7416 38.0955 21.2224 38.4711 20.7363C38.8467 20.2502 39.167 19.8304 39.4322 19.4769C39.6973 19.1013 39.863 18.8693 39.9293 18.781C40.0839 18.5821 40.2275 18.4606 40.3601 18.4164C40.5148 18.3722 40.6363 18.3943 40.7247 18.4827C40.813 18.549 40.8572 18.6705 40.8572 18.8472C40.8793 19.0019 40.8351 19.1787 40.7247 19.3775C40.2828 20.2171 39.7304 21.1119 39.0676 22.062C38.4269 22.9899 37.7309 23.8516 36.9797 24.647C36.2506 25.4424 35.5104 26.1052 34.7592 26.6354C34.008 27.1657 33.301 27.4308 32.6382 27.4308C32.0417 27.4308 31.5666 27.232 31.2131 26.8343C30.8817 26.4145 30.5945 25.818 30.3514 25.0447C29.8433 25.8401 29.2467 26.4587 28.5618 26.9006C27.8769 27.3204 27.1147 27.5303 26.2751 27.5303ZM36.814 26.8343C36.6593 27.0773 36.4936 27.232 36.3169 27.2983C36.118 27.3866 35.9523 27.3977 35.8198 27.3314C35.6651 27.2872 35.5657 27.1768 35.5215 27C35.4773 26.8232 35.5215 26.6023 35.6541 26.3372C35.7203 26.2046 35.875 25.9063 36.118 25.4424C36.339 24.9784 36.6151 24.426 36.9466 23.7853C37.2559 23.1225 37.5983 22.4155 37.9739 21.6643C38.3495 20.891 38.703 20.1619 39.0345 19.4769C39.388 18.792 39.7083 18.1844 39.9956 17.6542C40.2828 17.1018 40.4927 16.7041 40.6252 16.4611C40.3822 16.2401 40.2165 16.0855 40.1281 15.9971C40.0397 15.8866 39.9735 15.6657 39.9293 15.3343C39.8851 15.0471 39.9514 14.6715 40.1281 14.2075C40.3049 13.7435 40.5369 13.3016 40.8241 12.8818C41.1113 12.4399 41.4317 12.0643 41.7852 11.755C42.1387 11.4457 42.4812 11.291 42.8126 11.291C43.4312 11.291 43.862 11.4899 44.1051 11.8876C44.3702 12.2853 44.5249 12.694 44.5691 13.1138C44.6132 13.401 44.5911 13.7656 44.5028 14.2075C44.4144 14.6494 44.2487 15.0471 44.0057 15.4006C44.0719 15.4447 44.1603 15.5 44.2708 15.5663C44.3813 15.6105 44.558 15.6325 44.801 15.6325C45.1545 15.6325 45.3976 15.6105 45.5301 15.5663C45.6848 15.5221 45.9168 15.5 46.2261 15.5C46.6017 15.5 46.911 15.5994 47.1541 15.7983C47.3971 15.975 47.596 16.207 47.7506 16.4942C47.9053 16.7593 48.0157 17.0576 48.082 17.389C48.1704 17.6984 48.2256 17.9856 48.2477 18.2507C48.314 18.8031 48.1704 19.3775 47.8169 19.9741C47.4634 20.5706 47.0326 21.2224 46.5244 21.9294C46.2151 22.3713 45.9057 22.8684 45.5964 23.4207C45.2871 23.9731 45.1545 24.4702 45.1987 24.9121C45.2429 25.1993 45.3203 25.4313 45.4307 25.6081C45.5412 25.7848 45.8505 25.8732 46.3587 25.8732C46.7343 25.8732 47.143 25.7406 47.5849 25.4755C48.0489 25.1883 48.5129 24.8348 48.9768 24.415C49.4629 23.9731 49.9379 23.4981 50.4019 22.9899C50.8659 22.4596 51.2967 21.9515 51.6944 21.4654C52.0921 20.9572 52.4235 20.5043 52.6887 20.1066C52.9759 19.7089 53.1858 19.4217 53.3183 19.2449C53.4288 19.0682 53.5724 18.9467 53.7492 18.8804C53.9259 18.8141 54.0806 18.8141 54.2132 18.8804C54.3457 18.9467 54.4231 19.0792 54.4451 19.2781C54.4893 19.4769 54.412 19.7421 54.2132 20.0735C54.0806 20.2944 53.8486 20.6479 53.5172 21.134C53.2079 21.6201 52.8212 22.1614 52.3572 22.7579C51.9154 23.3545 51.4182 23.9731 50.8659 24.6138C50.3135 25.2325 49.728 25.8069 49.1094 26.3372C48.5129 26.8453 47.9053 27.2651 47.2866 27.5965C46.6901 27.928 46.1156 28.0937 45.5633 28.0937C44.9888 28.0937 44.5138 27.9832 44.1382 27.7622C43.7626 27.5413 43.4533 27.2762 43.2103 26.9669C42.9893 26.6354 42.8236 26.2819 42.7131 25.9063C42.6248 25.5086 42.5916 25.1441 42.6137 24.8127C42.6358 24.5475 42.7021 24.2714 42.8126 23.9841C42.9451 23.6748 43.0887 23.3655 43.2434 23.0562C43.4202 22.7248 43.5969 22.4044 43.7737 22.0951C43.9725 21.7637 44.1493 21.4433 44.3039 21.134C44.6795 20.4933 44.9778 19.952 45.1987 19.5101C45.4418 19.0461 45.5633 18.6594 45.5633 18.3501C45.5633 18.1513 45.5191 17.9745 45.4307 17.8199C45.3423 17.6652 45.1987 17.5879 44.9999 17.5879C44.8673 17.5879 44.7679 17.5989 44.7016 17.621C44.6574 17.621 44.6022 17.621 44.5359 17.621C44.4917 17.621 44.4144 17.6321 44.3039 17.6542C44.2155 17.6542 44.0719 17.6542 43.8731 17.6542C43.5859 17.6542 43.3428 17.61 43.144 17.5216C42.9451 17.4332 42.7573 17.3669 42.5806 17.3228C42.4922 17.4774 42.2934 17.8088 41.984 18.317C41.6747 18.8252 41.3102 19.4217 40.8904 20.1066C40.4927 20.7915 40.0618 21.5096 39.5979 22.2608C39.156 23.012 38.7362 23.719 38.3385 24.3818C37.9408 25.0226 37.6094 25.5749 37.3443 26.0389C37.057 26.4808 36.8803 26.7459 36.814 26.8343ZM50.6008 26.8343C50.4461 27.0773 50.2804 27.232 50.1036 27.2983C49.9048 27.3866 49.7391 27.3977 49.6065 27.3314C49.4519 27.2872 49.3524 27.1768 49.3083 27C49.2641 26.8232 49.3083 26.6023 49.4408 26.3372C49.5071 26.2046 49.6618 25.9063 49.9048 25.4424C50.1257 24.9784 50.4019 24.426 50.7333 23.7853C51.0426 23.1225 51.3851 22.4155 51.7607 21.6643C52.1363 20.891 52.4898 20.1619 52.8212 19.4769C53.1747 18.792 53.4951 18.1844 53.7823 17.6542C54.0695 17.1018 54.2794 16.7041 54.412 16.4611C54.169 16.2401 54.0033 16.0855 53.9149 15.9971C53.8265 15.8866 53.7602 15.6657 53.716 15.3343C53.6719 15.0471 53.7381 14.6715 53.9149 14.2075C54.0916 13.7435 54.3236 13.3016 54.6109 12.8818C54.8981 12.4399 55.2184 12.0643 55.572 11.755C55.9255 11.4457 56.2679 11.291 56.5993 11.291C57.218 11.291 57.6488 11.4899 57.8918 11.8876C58.157 12.2853 58.3116 12.694 58.3558 13.1138C58.4 13.401 58.3779 13.7656 58.2895 14.2075C58.2012 14.6494 58.0355 15.0471 57.7924 15.4006C57.8587 15.4447 57.9471 15.5 58.0575 15.5663C58.168 15.6105 58.3448 15.6325 58.5878 15.6325C58.9413 15.6325 59.1843 15.6105 59.3169 15.5663C59.4716 15.5221 59.7036 15.5 60.0129 15.5C60.3885 15.5 60.6978 15.5994 60.9408 15.7983C61.1839 15.975 61.3827 16.207 61.5374 16.4942C61.692 16.7593 61.8025 17.0576 61.8688 17.389C61.9572 17.6984 62.0124 17.9856 62.0345 18.2507C62.1008 18.8031 61.9572 19.3775 61.6037 19.9741C61.2502 20.5706 60.8193 21.2224 60.3112 21.9294C60.0018 22.3713 59.6925 22.8684 59.3832 23.4207C59.0739 23.9731 58.9413 24.4702 58.9855 24.9121C59.0297 25.1993 59.107 25.4313 59.2175 25.6081C59.328 25.7848 59.6373 25.8732 60.1454 25.8732C60.521 25.8732 60.9298 25.7406 61.3717 25.4755C61.8357 25.1883 62.2996 24.8348 62.7636 24.415C63.2497 23.9731 63.7247 23.4981 64.1887 22.9899C64.6527 22.4596 65.0835 21.9515 65.4812 21.4654C65.8789 20.9572 66.2103 20.5043 66.4754 20.1066C66.7627 19.7089 66.9725 19.4217 67.1051 19.2449C67.2156 19.0682 67.3592 18.9467 67.5359 18.8804C67.7127 18.8141 67.8674 18.8141 67.9999 18.8804C68.1325 18.9467 68.2098 19.0792 68.2319 19.2781C68.2761 19.4769 68.1988 19.7421 67.9999 20.0735C67.8674 20.2944 67.6354 20.6479 67.304 21.134C66.9946 21.6201 66.608 22.1614 66.144 22.7579C65.7021 23.3545 65.205 23.9731 64.6527 24.6138C64.1003 25.2325 63.5148 25.8069 62.8962 26.3372C62.2996 26.8453 61.692 27.2651 61.0734 27.5965C60.4769 27.928 59.9024 28.0937 59.3501 28.0937C58.7756 28.0937 58.3006 27.9832 57.925 27.7622C57.5494 27.5413 57.2401 27.2762 56.997 26.9669C56.7761 26.6354 56.6104 26.2819 56.4999 25.9063C56.4115 25.5086 56.3784 25.1441 56.4005 24.8127C56.4226 24.5475 56.4889 24.2714 56.5993 23.9841C56.7319 23.6748 56.8755 23.3655 57.0302 23.0562C57.2069 22.7248 57.3837 22.4044 57.5604 22.0951C57.7593 21.7637 57.936 21.4433 58.0907 21.134C58.4663 20.4933 58.7646 19.952 58.9855 19.5101C59.2285 19.0461 59.3501 18.6594 59.3501 18.3501C59.3501 18.1513 59.3059 17.9745 59.2175 17.8199C59.1291 17.6652 58.9855 17.5879 58.7867 17.5879C58.6541 17.5879 58.5547 17.5989 58.4884 17.621C58.4442 17.621 58.389 17.621 58.3227 17.621C58.2785 17.621 58.2012 17.6321 58.0907 17.6542C58.0023 17.6542 57.8587 17.6542 57.6599 17.6542C57.3726 17.6542 57.1296 17.61 56.9307 17.5216C56.7319 17.4332 56.5441 17.3669 56.3673 17.3228C56.279 17.4774 56.0801 17.8088 55.7708 18.317C55.4615 18.8252 55.0969 19.4217 54.6771 20.1066C54.2794 20.7915 53.8486 21.5096 53.3846 22.2608C52.9427 23.012 52.523 23.719 52.1253 24.3818C51.7276 25.0226 51.3962 25.5749 51.131 26.0389C50.8438 26.4808 50.667 26.7459 50.6008 26.8343ZM72.938 7.4798C72.8717 7.72283 72.7391 7.96587 72.5403 8.2089C72.3635 8.42985 72.1536 8.61765 71.9106 8.77231C71.6897 8.90487 71.4577 8.99325 71.2146 9.03744C70.9716 9.08162 70.7727 9.03744 70.6181 8.90487C70.1541 8.55136 69.9111 8.17576 69.889 7.77807C69.8669 7.35828 69.9663 6.97163 70.1872 6.61812C70.4082 6.24252 70.6844 5.9332 71.0158 5.69017C71.3472 5.42504 71.6344 5.27038 71.8775 5.22619C72.1205 5.182 72.3193 5.23724 72.474 5.3919C72.6507 5.52446 72.7833 5.71226 72.8717 5.9553C72.9601 6.17624 73.0043 6.43032 73.0043 6.71755C73.0264 7.00477 73.0043 7.25885 72.938 7.4798ZM68.3645 14.5389C68.475 14.4063 68.6848 14.2958 68.9942 14.2075C69.3035 14.1191 69.6238 14.0528 69.9553 14.0086C70.2867 13.9423 70.5849 13.9092 70.8501 13.9092C71.1373 13.8871 71.303 13.8871 71.3472 13.9092C71.3693 13.9313 71.3141 14.1633 71.1815 14.6052C71.0489 15.0471 70.8832 15.5663 70.6844 16.1628C70.4855 16.7593 70.2756 17.378 70.0547 18.0187C69.8337 18.6374 69.668 19.1455 69.5576 19.5432C69.4471 19.9409 69.3145 20.3938 69.1599 20.902C69.0052 21.3881 68.8616 21.8742 68.729 22.3602C68.6186 22.8242 68.5412 23.2661 68.497 23.6859C68.4529 24.1057 68.486 24.426 68.5965 24.647C68.7069 24.9121 68.8285 25.0999 68.961 25.2104C69.0936 25.2987 69.2372 25.3429 69.3919 25.3429C69.8337 25.3429 70.3861 25.0999 71.0489 24.6138C71.7338 24.1278 72.4188 23.5533 73.1037 22.8905C73.8107 22.2056 74.4625 21.5206 75.059 20.8357C75.6556 20.1287 76.0974 19.5653 76.3847 19.1455C76.5614 18.9246 76.7382 18.781 76.9149 18.7147C77.1138 18.6484 77.2684 18.6594 77.3789 18.7478C77.5115 18.8362 77.5778 18.9798 77.5778 19.1787C77.5998 19.3775 77.5336 19.6095 77.3789 19.8746C77.0254 20.4933 76.5062 21.2334 75.8213 22.0951C75.1363 22.9347 74.4072 23.7522 73.6339 24.5475C72.8606 25.3208 72.0984 25.9837 71.3472 26.536C70.6181 27.0884 70.0215 27.3756 69.5576 27.3977C69.182 27.4198 68.8064 27.3535 68.4308 27.1988C68.0773 27.0663 67.7458 26.8785 67.4365 26.6354C67.1493 26.3703 66.9063 26.072 66.7074 25.7406C66.5086 25.3871 66.3981 25.0226 66.376 24.647C66.3097 24.0946 66.3097 23.3434 66.376 22.3934C66.4423 21.4212 66.5638 20.438 66.7406 19.4438C66.9173 18.4275 67.1383 17.4664 67.4034 16.5605C67.6906 15.6546 68.011 14.9808 68.3645 14.5389ZM80.5936 25.8732C81.2785 25.8732 82.0297 25.6081 82.8472 25.0778C83.6868 24.5255 84.4932 23.8847 85.2665 23.1556C86.0619 22.4265 86.78 21.6864 87.4207 20.9351C88.0835 20.1619 88.5806 19.5432 88.9121 19.0792C89.1109 18.792 89.2987 18.6263 89.4755 18.5821C89.6522 18.5158 89.7848 18.5379 89.8732 18.6484C89.9615 18.7589 89.9947 18.9356 89.9726 19.1787C89.9505 19.3996 89.8511 19.6537 89.6743 19.9409C89.5196 20.206 89.2545 20.5927 88.8789 21.1009C88.5254 21.5869 88.0946 22.1282 87.5864 22.7248C87.1003 23.2992 86.5369 23.8958 85.8962 24.5144C85.2776 25.1109 84.6258 25.6633 83.9409 26.1715C83.2559 26.6575 82.5489 27.0552 81.8198 27.3646C81.0907 27.696 80.3727 27.8617 79.6656 27.8617C78.6935 27.8617 77.876 27.6739 77.2132 27.2983C76.5725 26.9448 76.0532 26.4808 75.6556 25.9063C75.28 25.3319 75.0148 24.7022 74.8602 24.0173C74.7055 23.3103 74.6282 22.6143 74.6282 21.9294C74.6282 21.2445 74.7828 20.3938 75.0922 19.3775C75.4015 18.3612 75.8544 17.389 76.4509 16.4611C77.0696 15.511 77.8429 14.7046 78.7708 14.0418C79.6988 13.3568 80.7924 13.0144 82.0518 13.0144C82.7588 13.0144 83.3554 13.2574 83.8414 13.7435C84.3496 14.2296 84.5926 14.8924 84.5706 15.732C84.5706 16.1297 84.5043 16.5274 84.3717 16.9251C84.2391 17.3007 84.0624 17.6431 83.8414 17.9524C83.6205 18.2397 83.3554 18.4716 83.0461 18.6484C82.7588 18.8252 82.4385 18.9135 82.085 18.9135C81.7977 18.9135 81.5768 18.8141 81.4221 18.6153C81.2896 18.3943 81.2012 18.1513 81.157 17.8862C81.1349 17.5989 81.1349 17.3228 81.157 17.0576C81.2012 16.7925 81.2454 16.6157 81.2896 16.5274C81.4 16.3727 81.5216 16.2622 81.6541 16.1959C81.7867 16.1297 81.9413 16.0523 82.1181 15.964C82.2507 15.8977 82.3501 15.7983 82.4164 15.6657C82.5047 15.5331 82.5489 15.3895 82.5489 15.2349C82.5489 15.0802 82.5047 14.9476 82.4164 14.8372C82.328 14.7267 82.1844 14.6715 81.9855 14.6715C81.7867 14.6715 81.4221 14.8372 80.8919 15.1686C80.3837 15.4779 79.8534 15.9529 79.3011 16.5936C78.7708 17.2123 78.2958 17.9966 77.876 18.9467C77.4562 19.8967 77.2353 21.0014 77.2132 22.2608C77.1911 22.9899 77.2905 23.5864 77.5115 24.0504C77.7324 24.5144 78.0086 24.879 78.34 25.1441C78.6714 25.4092 79.036 25.597 79.4337 25.7075C79.8314 25.818 80.218 25.8732 80.5936 25.8732ZM91.3977 27.5303C90.5581 27.5303 89.8732 27.3977 89.3429 27.1326C88.8126 26.8674 88.3928 26.5471 88.0835 26.1715C87.7963 25.7738 87.5864 25.354 87.4538 24.9121C87.3434 24.4481 87.2881 24.0283 87.2881 23.6527C87.2881 22.9899 87.3434 22.2939 87.4538 21.5648C87.5643 20.8136 87.6969 20.1287 87.8515 19.5101C88.0062 18.8693 88.1388 18.328 88.2492 17.8862C88.3818 17.4443 88.4702 17.1681 88.5144 17.0576C88.7132 16.4169 88.9673 15.8645 89.2766 15.4006C89.608 14.9145 90.061 14.5831 90.6354 14.4063C90.8563 14.3621 91.0883 14.3179 91.3314 14.2738C91.5302 14.2517 91.7291 14.2406 91.9279 14.2406C92.1489 14.2406 92.3477 14.2738 92.5245 14.34C91.9279 15.8645 91.4529 17.135 91.0994 18.1513C90.768 19.1676 90.5139 19.9961 90.3371 20.6369C90.1383 21.366 90.0168 21.9515 89.9726 22.3934C89.8621 23.3876 89.9505 24.1388 90.2377 24.647C90.5249 25.1551 91.1104 25.4092 91.9942 25.4092C92.5686 25.4092 93.121 25.1993 93.6513 24.7795C94.1815 24.3377 94.6676 23.7743 95.1095 23.0893C95.0432 22.7358 95.0101 22.3713 95.0101 21.9957C95.0101 21.2887 95.0653 20.6037 95.1758 19.9409C95.3083 19.256 95.4519 18.6263 95.6066 18.0519C95.7833 17.4553 95.9601 16.9251 96.1369 16.4611C96.3357 15.9971 96.5014 15.6325 96.634 15.3674C96.877 14.8372 97.098 14.5168 97.2968 14.4063C97.4956 14.2738 97.816 14.1964 98.2579 14.1743C98.4347 14.1522 98.5783 14.1522 98.6887 14.1743C98.8213 14.1743 98.9318 14.1854 99.0201 14.2075C99.2853 14.2738 99.4178 14.4063 99.4178 14.6052C99.4178 14.9587 99.3957 15.4889 99.3516 16.1959C99.3074 16.903 99.1748 17.6321 98.9539 18.3833C98.7992 19.0019 98.6445 19.5322 98.4899 19.9741C98.3573 20.3938 98.2248 20.7584 98.0922 21.0677C97.9596 21.3549 97.8271 21.598 97.6945 21.7968C97.5619 21.9736 97.4404 22.1393 97.3299 22.2939C97.3741 22.9568 97.4294 23.487 97.4956 23.8847C97.5619 24.2824 97.6393 24.5917 97.7276 24.8127C97.8381 25.0115 97.9596 25.1551 98.0922 25.2435C98.2469 25.3098 98.4126 25.3429 98.5893 25.3429C98.8986 25.3429 99.2632 25.1993 99.683 24.9121C100.103 24.6028 100.534 24.2272 100.975 23.7853C101.439 23.3213 101.892 22.8242 102.334 22.2939C102.798 21.7416 103.218 21.2224 103.594 20.7363C103.969 20.2502 104.29 19.8304 104.555 19.4769C104.82 19.1013 104.986 18.8693 105.052 18.781C105.207 18.5821 105.35 18.4606 105.483 18.4164C105.637 18.3722 105.759 18.3943 105.847 18.4827C105.936 18.549 105.98 18.6705 105.98 18.8472C106.002 19.0019 105.958 19.1787 105.847 19.3775C105.405 20.2171 104.853 21.1119 104.19 22.062C103.549 22.9899 102.853 23.8516 102.102 24.647C101.373 25.4424 100.633 26.1052 99.8818 26.6354C99.1306 27.1657 98.4236 27.4308 97.7608 27.4308C97.1642 27.4308 96.6892 27.232 96.3357 26.8343C96.0043 26.4145 95.7171 25.818 95.474 25.0447C94.9659 25.8401 94.3693 26.4587 93.6844 26.9006C92.9995 27.3204 92.2372 27.5303 91.3977 27.5303ZM102.699 26.4697C103.671 22.3823 104.444 19.1013 105.019 16.6268C105.615 14.1522 106.068 12.2632 106.378 10.9596C106.731 9.41304 106.974 8.34147 107.107 7.74493C107.173 7.32514 107.228 6.91639 107.272 6.5187C107.317 6.16519 107.339 5.80064 107.339 5.42504C107.339 5.04944 107.305 4.70698 107.239 4.39766C107.416 4.28719 107.604 4.19881 107.803 4.13253C108.024 4.06625 108.233 4.01101 108.432 3.96682C108.675 3.90054 108.918 3.8453 109.161 3.80112C109.404 3.75693 109.625 3.73483 109.824 3.73483C110.001 3.73483 110.167 3.75693 110.321 3.80112C110.476 3.82321 110.575 3.88949 110.62 3.99996C110.752 4.11043 110.807 4.33138 110.785 4.66279C110.785 4.9942 110.763 5.33666 110.719 5.69017C110.631 6.10996 110.531 6.56289 110.421 7.04896C110.156 7.99901 109.791 9.36885 109.327 11.1585C108.929 12.683 108.388 14.7598 107.703 17.389C107.04 20.0182 106.201 23.3324 105.184 27.3314C105.074 27.4419 104.941 27.5192 104.787 27.5634C104.632 27.6076 104.488 27.6297 104.356 27.6297C104.201 27.6297 104.036 27.6186 103.859 27.5965C103.704 27.5524 103.549 27.4861 103.395 27.3977C103.262 27.3093 103.13 27.1878 102.997 27.0331C102.865 26.9006 102.765 26.7128 102.699 26.4697ZM114.729 27.5303C113.89 27.5303 113.205 27.3977 112.674 27.1326C112.144 26.8674 111.724 26.5471 111.415 26.1715C111.128 25.7738 110.918 25.354 110.785 24.9121C110.675 24.4481 110.62 24.0283 110.62 23.6527C110.62 22.9899 110.675 22.2939 110.785 21.5648C110.896 20.8136 111.028 20.1287 111.183 19.5101C111.338 18.8693 111.47 18.328 111.581 17.8862C111.713 17.4443 111.802 17.1681 111.846 17.0576C112.045 16.4169 112.299 15.8645 112.608 15.4006C112.939 14.9145 113.392 14.5831 113.967 14.4063C114.188 14.3621 114.42 14.3179 114.663 14.2738C114.862 14.2517 115.061 14.2406 115.259 14.2406C115.48 14.2406 115.679 14.2738 115.856 14.34C115.259 15.8645 114.784 17.135 114.431 18.1513C114.099 19.1676 113.845 19.9961 113.669 20.6369C113.47 21.366 113.348 21.9515 113.304 22.3934C113.194 23.3876 113.282 24.1388 113.569 24.647C113.856 25.1551 114.442 25.4092 115.326 25.4092C115.9 25.4092 116.452 25.1993 116.983 24.7795C117.513 24.3377 117.999 23.7743 118.441 23.0893C118.375 22.7358 118.342 22.3713 118.342 21.9957C118.342 21.2887 118.397 20.6037 118.507 19.9409C118.64 19.256 118.783 18.6263 118.938 18.0519C119.115 17.4553 119.292 16.9251 119.468 16.4611C119.667 15.9971 119.833 15.6325 119.965 15.3674C120.208 14.8372 120.429 14.5168 120.628 14.4063C120.827 14.2738 121.147 14.1964 121.589 14.1743C121.766 14.1522 121.91 14.1522 122.02 14.1743C122.153 14.1743 122.263 14.1854 122.352 14.2075C122.617 14.2738 122.749 14.4063 122.749 14.6052C122.749 14.9587 122.727 15.4889 122.683 16.1959C122.639 16.903 122.506 17.6321 122.285 18.3833C122.131 19.0019 121.976 19.5322 121.821 19.9741C121.689 20.3938 121.556 20.7584 121.424 21.0677C121.291 21.3549 121.159 21.598 121.026 21.7968C120.893 21.9736 120.772 22.1393 120.661 22.2939C120.706 22.9568 120.761 23.487 120.827 23.8847C120.893 24.2824 120.971 24.5917 121.059 24.8127C121.17 25.0115 121.291 25.1551 121.424 25.2435C121.578 25.3098 121.744 25.3429 121.921 25.3429C122.23 25.3429 122.595 25.1993 123.014 24.9121C123.434 24.6028 123.865 24.2272 124.307 23.7853C124.771 23.3213 125.224 22.8242 125.666 22.2939C126.13 21.7416 126.549 21.2224 126.925 20.7363C127.301 20.2502 127.621 19.8304 127.886 19.4769C128.151 19.1013 128.317 18.8693 128.383 18.781C128.538 18.5821 128.682 18.4606 128.814 18.4164C128.969 18.3722 129.09 18.3943 129.179 18.4827C129.267 18.549 129.311 18.6705 129.311 18.8472C129.333 19.0019 129.289 19.1787 129.179 19.3775C128.737 20.2171 128.184 21.1119 127.522 22.062C126.881 22.9899 126.185 23.8516 125.434 24.647C124.705 25.4424 123.964 26.1052 123.213 26.6354C122.462 27.1657 121.755 27.4308 121.092 27.4308C120.496 27.4308 120.021 27.232 119.667 26.8343C119.336 26.4145 119.049 25.818 118.805 25.0447C118.297 25.8401 117.701 26.4587 117.016 26.9006C116.331 27.3204 115.569 27.5303 114.729 27.5303ZM141.971 25.4755C141.971 25.0115 142.015 24.4813 142.104 23.8847C142.214 23.2882 142.347 22.6806 142.501 22.062C142.656 21.4212 142.811 20.8026 142.965 20.206C143.12 19.6095 143.253 19.0792 143.363 18.6153C143.496 18.0408 143.485 17.5989 143.33 17.2896C143.175 16.9803 142.91 16.8256 142.535 16.8256C142.358 16.8256 142.004 16.9803 141.474 17.2896C140.966 17.5989 140.403 18.1402 139.784 18.9135C139.187 19.6647 138.591 20.6921 137.994 21.9957C137.42 23.2771 136.967 24.9121 136.635 26.9006C136.216 27.1215 135.818 27.2651 135.442 27.3314C135.244 27.3756 135.067 27.4087 134.912 27.4308C134.47 27.4529 134.183 27.3756 134.05 27.1988C133.918 27.0442 133.94 26.6465 134.117 26.0058C134.205 25.6964 134.36 25.1993 134.581 24.5144C134.824 23.8295 135.056 23.0893 135.277 22.2939C135.498 21.4765 135.685 20.67 135.84 19.8746C136.017 19.0571 136.105 18.3501 136.105 17.7536C136.105 17.3338 136.028 17.0466 135.873 16.8919C135.741 16.7373 135.542 16.6599 135.277 16.6599C135.078 16.6599 134.746 16.7704 134.282 16.9913C133.818 17.2123 133.299 17.6431 132.725 18.2838C132.15 18.9246 131.576 19.8194 131.001 20.9683C130.449 22.0951 129.974 23.5644 129.576 25.3761V25.3098C129.532 25.4865 129.488 25.6633 129.444 25.8401C129.4 25.9947 129.367 26.1604 129.344 26.3372C129.322 26.5139 129.289 26.6796 129.245 26.8343L127.588 27.5634C127.477 27.6076 127.334 27.6407 127.157 27.6628C127.002 27.6849 126.848 27.6518 126.693 27.5634C126.561 27.4971 126.461 27.3425 126.395 27.0994C126.329 26.8564 126.351 26.4918 126.461 26.0058L128.549 17.3559C128.615 17.0687 128.671 16.7925 128.715 16.5274C128.759 16.2843 128.781 16.0523 128.781 15.8314C128.803 15.5884 128.792 15.3895 128.748 15.2349C129.123 15.0581 129.455 14.9255 129.742 14.8372C130.029 14.7488 130.261 14.6825 130.438 14.6383C130.659 14.572 130.847 14.5389 131.001 14.5389C131.708 14.5389 131.94 15.1465 131.697 16.3617C131.609 16.7152 131.477 17.2344 131.3 17.9193C131.72 17.389 132.161 16.8919 132.625 16.4279C133.111 15.9419 133.598 15.511 134.084 15.1354C134.57 14.7598 135.056 14.4616 135.542 14.2406C136.05 14.0197 136.547 13.9092 137.033 13.9092C137.409 13.9092 137.718 14.0197 137.961 14.2406C138.226 14.4616 138.425 14.7598 138.558 15.1354C138.712 15.4889 138.801 15.9198 138.823 16.4279C138.845 16.914 138.823 17.4222 138.757 17.9524C139.11 17.4885 139.497 17.0245 139.916 16.5605C140.358 16.0744 140.811 15.6436 141.275 15.268C141.761 14.8924 142.258 14.5831 142.767 14.34C143.275 14.097 143.783 13.9755 144.291 13.9755C144.888 13.9755 145.341 14.1522 145.65 14.5057C145.981 14.8593 146.202 15.3122 146.313 15.8645C146.445 16.4169 146.478 17.0134 146.412 17.6542C146.368 18.2949 146.28 18.9135 146.147 19.5101L145.02 23.9841C144.777 25.0889 145.009 25.6412 145.716 25.6412C146.269 25.6412 146.876 25.3761 147.539 24.8458C148.202 24.3156 148.843 23.6859 149.461 22.9568C150.102 22.2277 150.698 21.4765 151.251 20.7032C151.803 19.9299 152.267 19.3112 152.643 18.8472C152.775 18.6926 152.908 18.6042 153.04 18.5821C153.195 18.56 153.317 18.5932 153.405 18.6815C153.515 18.7478 153.571 18.8693 153.571 19.0461C153.593 19.2229 153.538 19.4438 153.405 19.7089C152.963 20.4822 152.422 21.3439 151.781 22.2939C151.14 23.2219 150.433 24.0946 149.66 24.9121C148.909 25.7296 148.102 26.4145 147.241 26.9669C146.379 27.5192 145.484 27.7954 144.556 27.7954C144.247 27.7954 143.938 27.7622 143.628 27.696C143.341 27.6297 143.065 27.5082 142.8 27.3314C142.557 27.1547 142.358 26.9227 142.203 26.6354C142.049 26.3261 141.971 25.9395 141.971 25.4755ZM166.098 33.4294C165.546 33.4073 165.06 33.1201 164.64 32.5677C164.22 32.0154 163.856 31.2973 163.546 30.4136C163.237 29.5298 162.972 28.5245 162.751 27.3977C162.552 26.2709 162.386 25.133 162.254 23.9841C162.121 22.8132 162.033 21.6864 161.989 20.6037C161.944 19.499 161.922 18.5269 161.922 17.6873C161.944 16.3617 162.044 15.0029 162.221 13.6109C162.419 12.1969 162.629 10.8713 162.85 9.63398C163.093 8.3967 163.325 7.30304 163.546 6.35299C163.789 5.38085 163.966 4.69593 164.076 4.29823C164.231 3.6575 164.441 3.22667 164.706 3.00573C164.971 2.76269 165.468 2.61908 166.197 2.57489H166.993C167.214 2.59698 167.435 2.61908 167.656 2.64117C167.877 2.66327 168.075 2.7185 168.252 2.80688C167.457 4.39766 166.816 6.01053 166.33 7.6455C165.844 9.28047 165.468 10.9154 165.203 12.5504C164.938 14.1854 164.772 15.7983 164.706 17.389C164.64 18.9577 164.629 20.4822 164.673 21.9625C164.717 23.1335 164.783 24.2272 164.872 25.2435C164.96 26.2378 165.104 27.2541 165.303 28.2925C165.502 29.3088 165.734 29.8943 165.999 30.049C166.264 30.2037 166.54 30.0932 166.827 29.7176C167.114 29.3641 167.391 28.8338 167.656 28.1268C167.943 27.4419 168.186 26.7459 168.385 26.0389C168.517 25.5749 168.716 24.9121 168.981 24.0504C169.246 23.1667 169.545 22.1945 169.876 21.134C170.208 20.0735 170.55 18.9688 170.904 17.8199C171.279 16.671 171.622 15.6105 171.931 14.6383C172.24 13.6441 172.505 12.7824 172.726 12.0533C172.969 11.3242 173.135 10.8381 173.223 10.5951C173.356 10.2416 173.533 9.7555 173.754 9.13686C173.997 8.49613 174.251 7.8333 174.516 7.14838C174.803 6.44137 175.09 5.7454 175.378 5.06048C175.687 4.35347 175.974 3.73483 176.239 3.20457C176.504 2.69641 176.803 2.39814 177.134 2.30976C177.466 2.22138 177.786 2.27662 178.095 2.47547C178.427 2.65222 178.725 2.9284 178.99 3.304C179.277 3.6796 179.52 4.06625 179.719 4.46394C179.432 4.57441 179.134 4.85059 178.824 5.29247C178.537 5.71226 178.272 6.16519 178.029 6.65126C177.742 7.22571 177.466 7.84435 177.2 8.50718C177.024 8.99325 176.792 9.63398 176.504 10.4294C176.217 11.2248 175.908 12.0975 175.576 13.0475C175.267 13.9976 174.936 14.9808 174.582 15.9971C174.251 17.0134 173.93 17.9745 173.621 18.8804C173.312 19.7863 173.025 20.6037 172.759 21.3328C172.516 22.0399 172.318 22.5701 172.163 22.9236C171.942 23.4539 171.688 24.0725 171.401 24.7795C171.113 25.4645 170.804 26.1715 170.473 26.9006C170.163 27.6297 169.843 28.3477 169.512 29.0548C169.18 29.7839 168.849 30.4356 168.517 31.0101C168.053 31.8497 167.656 32.4573 167.324 32.8329C167.015 33.2306 166.606 33.4294 166.098 33.4294ZM184.79 7.4798C184.723 7.72283 184.591 7.96587 184.392 8.2089C184.215 8.42985 184.005 8.61765 183.762 8.77231C183.541 8.90487 183.309 8.99325 183.066 9.03744C182.823 9.08162 182.625 9.03744 182.47 8.90487C182.006 8.55136 181.763 8.17576 181.741 7.77807C181.719 7.35828 181.818 6.97163 182.039 6.61812C182.26 6.24252 182.536 5.9332 182.868 5.69017C183.199 5.42504 183.486 5.27038 183.729 5.22619C183.972 5.182 184.171 5.23724 184.326 5.3919C184.503 5.52446 184.635 5.71226 184.723 5.9553C184.812 6.17624 184.856 6.43032 184.856 6.71755C184.878 7.00477 184.856 7.25885 184.79 7.4798ZM180.216 14.5389C180.327 14.4063 180.537 14.2958 180.846 14.2075C181.155 14.1191 181.476 14.0528 181.807 14.0086C182.138 13.9423 182.437 13.9092 182.702 13.9092C182.989 13.8871 183.155 13.8871 183.199 13.9092C183.221 13.9313 183.166 14.1633 183.033 14.6052C182.901 15.0471 182.735 15.5663 182.536 16.1628C182.337 16.7593 182.127 17.378 181.906 18.0187C181.686 18.6374 181.52 19.1455 181.409 19.5432C181.299 19.9409 181.166 20.3938 181.012 20.902C180.857 21.3881 180.713 21.8742 180.581 22.3602C180.47 22.8242 180.393 23.2661 180.349 23.6859C180.305 24.1057 180.338 24.426 180.448 24.647C180.559 24.9121 180.68 25.0999 180.813 25.2104C180.945 25.2987 181.089 25.3429 181.244 25.3429C181.686 25.3429 182.238 25.0999 182.901 24.6138C183.586 24.1278 184.271 23.5533 184.955 22.8905C185.662 22.2056 186.314 21.5206 186.911 20.8357C187.507 20.1287 187.949 19.5653 188.236 19.1455C188.413 18.9246 188.59 18.781 188.767 18.7147C188.966 18.6484 189.12 18.6594 189.231 18.7478C189.363 18.8362 189.43 18.9798 189.43 19.1787C189.452 19.3775 189.385 19.6095 189.231 19.8746C188.877 20.4933 188.358 21.2334 187.673 22.0951C186.988 22.9347 186.259 23.7522 185.486 24.5475C184.712 25.3208 183.95 25.9837 183.199 26.536C182.47 27.0884 181.873 27.3756 181.409 27.3977C181.034 27.4198 180.658 27.3535 180.283 27.1988C179.929 27.0663 179.598 26.8785 179.288 26.6354C179.001 26.3703 178.758 26.072 178.559 25.7406C178.36 25.3871 178.25 25.0226 178.228 24.647C178.161 24.0946 178.161 23.3434 178.228 22.3934C178.294 21.4212 178.416 20.438 178.592 19.4438C178.769 18.4275 178.99 17.4664 179.255 16.5605C179.542 15.6546 179.863 14.9808 180.216 14.5389ZM199.04 18.6153C199.129 18.4827 199.239 18.4054 199.372 18.3833C199.527 18.3391 199.648 18.3501 199.736 18.4164C199.825 18.4827 199.869 18.5932 199.869 18.7478C199.891 18.9025 199.836 19.1124 199.703 19.3775C199.261 20.2171 198.676 21.1229 197.947 22.0951C197.24 23.0672 196.489 23.9841 195.693 24.8458C194.898 25.6854 194.125 26.3814 193.373 26.9337C192.622 27.4861 191.992 27.7622 191.484 27.7622C190.755 27.7622 190.148 27.6186 189.661 27.3314C189.175 27.0442 188.789 26.6907 188.502 26.2709C188.236 25.8511 188.049 25.3982 187.938 24.9121C187.828 24.4039 187.795 23.94 187.839 23.5202C187.861 23.1667 187.938 22.537 188.071 21.6311C188.203 20.7032 188.38 19.6426 188.601 18.4496C188.822 17.2344 189.065 15.9419 189.33 14.572C189.617 13.1801 189.916 11.8434 190.225 10.5619C189.849 10.6061 189.474 10.6503 189.098 10.6945C188.722 10.7387 188.38 10.7608 188.071 10.7608C187.364 10.7608 186.701 10.6835 186.082 10.5288C185.442 10.352 184.966 10.1863 184.657 10.0317C184.48 9.9433 184.403 9.82178 184.425 9.66712C184.447 9.49037 184.514 9.32466 184.624 9.17C184.734 8.99325 184.878 8.84964 185.055 8.73916C185.21 8.6066 185.353 8.54032 185.486 8.54032C185.905 8.5845 186.358 8.62869 186.844 8.67288C187.331 8.69498 187.861 8.69498 188.435 8.67288C188.855 8.65079 189.253 8.61765 189.628 8.57346C190.026 8.52927 190.413 8.47403 190.788 8.40775C191.076 7.34723 191.352 6.43032 191.617 5.65703C191.904 4.86164 192.158 4.30928 192.379 3.99996C192.445 3.88949 192.589 3.80112 192.81 3.73483C193.053 3.64646 193.307 3.59122 193.572 3.56913C193.837 3.52494 194.091 3.52494 194.334 3.56913C194.577 3.59122 194.754 3.66855 194.865 3.80112C194.975 3.97787 195.019 4.4308 194.997 5.15991C194.975 5.88902 194.854 6.81697 194.633 7.94377C195.561 7.94377 196.378 7.99901 197.085 8.10948C197.814 8.19786 198.433 8.30833 198.941 8.44089C199.449 8.55136 199.858 8.67288 200.167 8.80545C200.477 8.91592 200.709 8.99325 200.863 9.03744C201.018 9.08162 201.095 9.19209 201.095 9.36885C201.117 9.5456 201.084 9.7334 200.996 9.93225C200.93 10.109 200.808 10.2637 200.631 10.3962C200.454 10.5288 200.256 10.573 200.035 10.5288C199.814 10.5067 199.56 10.4625 199.272 10.3962C199.007 10.3299 198.676 10.2747 198.278 10.2305C197.903 10.1863 197.45 10.1421 196.919 10.098C196.389 10.0538 195.771 10.0317 195.064 10.0317C194.931 10.0317 194.776 10.0427 194.6 10.0648C194.445 10.0648 194.279 10.0648 194.102 10.0648C194.014 10.4183 193.926 10.7718 193.837 11.1253C193.771 11.4567 193.672 11.8103 193.539 12.1859C193.252 13.0696 192.92 14.0307 192.545 15.0691C192.213 15.975 191.816 17.0134 191.352 18.1844C190.888 19.3554 190.369 20.6037 189.794 21.9294C189.661 22.8794 189.673 23.6085 189.827 24.1167C190.004 24.6028 190.214 24.9563 190.457 25.1772C190.744 25.4203 191.098 25.5528 191.517 25.5749C191.849 25.6191 192.247 25.5086 192.71 25.2435C193.197 24.9563 193.694 24.5807 194.202 24.1167C194.71 23.6527 195.218 23.1446 195.726 22.5922C196.257 22.0399 196.743 21.4986 197.185 20.9683C197.626 20.438 198.013 19.963 198.344 19.5432C198.676 19.1013 198.908 18.792 199.04 18.6153ZM214.053 20.4049C213.744 20.8468 213.346 21.3991 212.86 22.062C212.374 22.7027 211.866 23.3545 211.336 24.0173C210.828 24.658 210.32 25.2546 209.811 25.8069C209.325 26.3372 208.917 26.7128 208.585 26.9337C208.364 27.0663 208.11 27.1768 207.823 27.2651C207.536 27.3535 207.237 27.4087 206.928 27.4308C206.641 27.4529 206.365 27.4308 206.1 27.3646C205.834 27.3204 205.602 27.232 205.404 27.0994C205.205 26.9448 205.039 26.7238 204.906 26.4366C204.796 26.1936 204.686 25.8732 204.575 25.4755C204.487 25.0778 204.454 24.5807 204.476 23.9841C203.945 24.8679 203.36 25.5528 202.719 26.0389C202.078 26.5029 201.471 26.8453 200.896 27.0663C200.234 27.3093 199.571 27.4529 198.908 27.4971C198.599 27.4971 198.267 27.3866 197.914 27.1657C197.56 26.9669 197.262 26.6465 197.019 26.2046C196.776 25.7406 196.621 25.1551 196.555 24.4481C196.489 23.719 196.577 22.8573 196.82 21.8631C197.129 20.5154 197.615 19.2891 198.278 18.1844C198.963 17.0797 199.703 16.1407 200.499 15.3674C201.294 14.572 202.078 13.9755 202.852 13.5778C203.625 13.1801 204.266 13.0033 204.774 13.0475C205.37 13.158 205.857 13.3348 206.232 13.5778C206.541 13.7987 206.74 14.1301 206.829 14.572C206.939 14.9918 206.762 15.5552 206.298 16.2622C206.608 16.1959 206.862 16.1518 207.061 16.1297C207.282 16.1076 207.447 16.0965 207.558 16.0965C207.69 16.0965 207.779 16.1076 207.823 16.1297C207.845 16.1739 207.856 16.2733 207.856 16.4279C207.856 16.5605 207.823 16.8146 207.757 17.1902C207.69 17.5658 207.591 18.074 207.458 18.7147C207.326 19.3554 207.149 20.1839 206.928 21.2003C206.884 21.3991 206.84 21.5869 206.796 21.7637C206.773 21.9183 206.74 22.084 206.696 22.2608C206.674 22.4155 206.641 22.6033 206.597 22.8242C206.552 23.0451 206.497 23.3213 206.431 23.6527C206.409 23.8516 206.398 24.0725 206.398 24.3156C206.42 24.5365 206.464 24.7464 206.53 24.9452C206.597 25.1441 206.696 25.3098 206.829 25.4424C206.983 25.5528 207.193 25.6081 207.458 25.6081C207.679 25.6081 207.967 25.4755 208.32 25.2104C208.674 24.9231 209.049 24.5696 209.447 24.1499C209.845 23.708 210.253 23.2329 210.673 22.7248C211.115 22.1945 211.524 21.6864 211.899 21.2003C212.275 20.7142 212.606 20.2834 212.894 19.9078C213.203 19.5322 213.424 19.256 213.556 19.0792C213.733 18.8804 213.91 18.7699 214.087 18.7478C214.263 18.7036 214.396 18.7478 214.484 18.8804C214.573 19.013 214.584 19.2118 214.517 19.4769C214.473 19.7421 214.319 20.0514 214.053 20.4049ZM204.343 21.8631C204.454 21.4212 204.586 20.902 204.741 20.3055C204.895 19.7089 205.028 19.1345 205.138 18.5821C205.249 18.0298 205.326 17.5768 205.37 17.2233C205.437 16.8477 205.426 16.671 205.337 16.6931C205.227 16.7152 205.105 16.7483 204.973 16.7925C204.862 16.8367 204.719 16.8698 204.542 16.8919C204.365 16.914 204.188 16.9472 204.012 16.9913C204.188 16.6378 204.288 16.3506 204.31 16.1297C204.354 15.8866 204.365 15.6988 204.343 15.5663C204.321 15.4116 204.277 15.2901 204.211 15.2017C203.967 15.0029 203.537 15.1686 202.918 15.6988C202.321 16.207 201.625 17.157 200.83 18.549C200.499 19.1234 200.234 19.7421 200.035 20.4049C199.836 21.0456 199.692 21.6532 199.604 22.2277C199.538 22.8021 199.527 23.3103 199.571 23.7522C199.615 24.1719 199.703 24.4481 199.836 24.5807C200.079 24.8237 200.355 24.9452 200.664 24.9452C200.974 24.9231 201.283 24.8348 201.592 24.6801C201.924 24.5034 202.244 24.2824 202.553 24.0173C202.885 23.7522 203.172 23.476 203.415 23.1888C203.68 22.9015 203.89 22.6364 204.045 22.3934C204.222 22.1503 204.321 21.9736 204.343 21.8631ZM226.846 20.1066C226.183 21.0788 225.432 22.0288 224.592 22.9568C223.753 23.8626 222.858 24.6801 221.908 25.4092C220.98 26.1162 220.019 26.6907 219.025 27.1326C218.053 27.5744 217.102 27.7954 216.175 27.7954C215.688 27.7954 215.158 27.6739 214.584 27.4308C214.031 27.2099 213.523 26.8564 213.059 26.3703C212.595 25.8842 212.22 25.2546 211.932 24.4813C211.667 23.708 211.59 22.769 211.7 21.6643C211.789 20.7584 212.065 19.8083 212.529 18.8141C213.015 17.7978 213.601 16.8698 214.285 16.0302C214.992 15.1907 215.777 14.4947 216.638 13.9423C217.522 13.39 218.406 13.1138 219.29 13.1138C220.129 13.1138 220.737 13.3237 221.113 13.7435C221.488 14.1633 221.654 14.6825 221.61 15.3011C221.543 15.9861 221.345 16.6157 221.013 17.1902C220.704 17.7646 220.328 18.2838 219.886 18.7478C219.444 19.2118 218.969 19.6316 218.461 20.0072C217.975 20.3828 217.511 20.7253 217.069 21.0346C216.583 21.366 216.119 21.6864 215.677 21.9957C215.236 22.2829 214.849 22.548 214.517 22.7911C214.54 23.3434 214.639 23.8074 214.816 24.183C214.992 24.5586 215.213 24.8679 215.479 25.1109C215.744 25.3319 216.042 25.4976 216.373 25.6081C216.727 25.6964 217.08 25.7406 217.434 25.7406C218.185 25.7406 218.969 25.5086 219.787 25.0447C220.604 24.5586 221.4 23.9841 222.173 23.3213C222.968 22.6364 223.698 21.9294 224.36 21.2003C225.045 20.4712 225.609 19.8415 226.051 19.3112C226.205 19.1345 226.36 19.035 226.515 19.013C226.691 18.9688 226.824 18.9909 226.912 19.0792C227.023 19.1455 227.078 19.2781 227.078 19.4769C227.078 19.6537 227.001 19.8636 226.846 20.1066ZM218.362 15.0029C218.097 15.0029 217.776 15.1354 217.401 15.4006C217.047 15.6657 216.694 16.0523 216.34 16.5605C215.987 17.0466 215.655 17.6542 215.346 18.3833C215.037 19.0903 214.805 19.9078 214.65 20.8357C214.915 20.6369 215.202 20.438 215.512 20.2392C215.821 20.0182 216.13 19.7863 216.44 19.5432C217.39 18.8141 218.053 18.1734 218.428 17.621C218.804 17.0687 219.014 16.5936 219.058 16.1959C219.102 15.7762 219.058 15.4779 218.925 15.3011C218.793 15.1023 218.605 15.0029 218.362 15.0029Z" fill="#02FFF0"/>
</g>
<defs>
<clipPath id="clip0">
<rect width="228.66" height="39.08" fill="white"/>
</clipPath>
</defs>
</svg>
