<svg width="274" height="320" viewBox="0 0 274 320" fill="none" xmlns="http://www.w3.org/2000/svg">
<path d="M137 89.5L0.5 0L14 61.5L113.5 127.5L137 254L160 127.5L259 61.5L271 0L137 89.5Z" fill="white"/>
<path d="M51.5 116.5L19 94L45 265.5L103.5 318.5L85.5 177L55.5 153L51.5 116.5Z" fill="white"/>
<path d="M137 90.5L273.5 1L260 62.5L160.5 128.5L137 255L114 128.5L15 62.5L3 1L137 90.5Z" fill="white"/>
<path d="M222.5 117.5L255 95L229 266.5L170.5 319.5L188.5 178L218.5 154L222.5 117.5Z" fill="white"/>
</svg>
